<?xml version="1.0" encoding="UTF-8"?>
<svg xmlns="http://www.w3.org/2000/svg" xmlns:xlink="http://www.w3.org/1999/xlink" width="0" height="0">
<symbol id="outline" width="24" height="24" viewBox="0 0 24 24" fill="none">
<g clip-path="url(#clip0_139_386)">
<circle cx="12" cy="12" r="11.5" stroke="#2F2F2F"/>
<path d="M15.0004 7.07692C15.0004 7.89297 14.6843 8.6756 14.1216 9.25263C13.5589 9.82967 12.7958 10.1538 12 10.1538C11.2042 10.1538 10.4411 9.82967 9.8784 9.25263C9.31571 8.6756 8.9996 7.89297 8.9996 7.07692C8.9996 6.26087 9.31571 5.47824 9.8784 4.90121C10.4411 4.32417 11.2042 4 12 4C12.7958 4 13.5589 4.32417 14.1216 4.90121C14.6843 5.47824 15.0004 6.26087 15.0004 7.07692ZM6 18.6609C6.02571 17.0464 6.66916 15.507 7.79158 14.3746C8.914 13.2422 10.4255 12.6076 12 12.6076C13.5745 12.6076 15.086 13.2422 16.2084 14.3746C17.3308 15.507 17.9743 17.0464 18 18.6609C16.1177 19.5461 14.0708 20.0029 12 20C9.85891 20 7.82664 19.5208 6 18.6609Z" stroke="#2F2F2F" stroke-linecap="round" stroke-linejoin="round"/>
</g>
<defs>
<clipPath>
<rect width="24" height="24" fill="white"/>
</clipPath>
</defs>
</symbol>

<symbol id="carts" width="24" height="24" viewBox="0 0 24 24" fill="none">
<path d="M14.74 9.00003L14.394 18M9.606 18L9.26 9.00003M19.228 5.79003C19.57 5.84203 19.91 5.89703 20.25 5.95603M19.228 5.79003L18.16 19.673C18.1164 20.2383 17.8611 20.7662 17.445 21.1513C17.029 21.5364 16.4829 21.7502 15.916 21.75H8.084C7.5171 21.7502 6.97102 21.5364 6.55498 21.1513C6.13894 20.7662 5.88359 20.2383 5.84 19.673L4.772 5.79003M19.228 5.79003C18.0739 5.61555 16.9138 5.48313 15.75 5.39303M4.772 5.79003C4.43 5.84103 4.09 5.89603 3.75 5.95503M4.772 5.79003C5.92613 5.61555 7.08623 5.48313 8.25 5.39303M15.75 5.39303V4.47703C15.75 3.29703 14.84 2.31303 13.66 2.27603C12.5536 2.24067 11.4464 2.24067 10.34 2.27603C9.16 2.31303 8.25 3.29803 8.25 4.47703V5.39303M15.75 5.39303C13.2537 5.20011 10.7463 5.20011 8.25 5.39303" stroke="#2F2F2F" stroke-linecap="round" stroke-linejoin="round"/>
</symbol>

</svg>
